<svg width="413" height="186" viewBox="0 0 413 186" fill="none" xmlns="http://www.w3.org/2000/svg">
<path d="M113.809 69V56.52H84.4334V40.776H111.025V28.968H84.4334V13.416H113.809V0.935995H71.1854V69H113.809ZM136.386 69V41.352C136.386 36.168 139.65 32.04 145.218 32.04C150.978 32.04 153.57 35.88 153.57 40.968V69H166.242V41.352C166.242 36.264 169.506 32.04 174.978 32.04C180.834 32.04 183.33 35.88 183.33 40.968V69H195.714V38.376C195.714 25.704 187.362 20.424 178.626 20.424C172.386 20.424 167.394 22.536 163.65 28.296C161.25 23.208 156.066 20.424 149.634 20.424C144.45 20.424 138.402 22.92 135.81 27.528V21.768H123.618V69H136.386ZM219.497 87.24V64.392C221.801 67.56 226.601 70.152 233.129 70.152C246.473 70.152 255.401 59.592 255.401 45.288C255.401 31.272 247.433 20.712 233.609 20.712C226.505 20.712 221.225 23.88 219.113 27.528V21.768H206.729V87.24H219.497ZM242.825 45.384C242.825 53.832 237.641 58.728 231.113 58.728C224.585 58.728 219.305 53.736 219.305 45.384C219.305 37.032 224.585 32.136 231.113 32.136C237.641 32.136 242.825 37.032 242.825 45.384ZM279.147 7.65599H267.627V14.28C267.627 18.504 265.323 21.768 260.331 21.768H257.931V33.096H266.475V55.08C266.475 64.2 272.235 69.672 281.451 69.672C285.195 69.672 287.499 69 288.651 68.52V57.96C287.979 58.152 286.251 58.344 284.715 58.344C281.067 58.344 279.147 57 279.147 52.872V33.096H288.651V21.768H279.147V7.65599ZM314.928 87.624L344.592 21.768H330.96L319.344 49.416L306.768 21.768H292.464L312.528 63.048L301.392 87.624H314.928ZM0.494124 97.936V166H26.7981C39.5661 166 47.8221 158.032 47.8221 146.992C47.8221 138.544 42.4461 132.496 35.8221 130.864C41.4861 128.944 45.7101 123.28 45.7101 116.272C45.7101 105.712 38.2221 97.936 24.9741 97.936H0.494124ZM13.5501 126.064V109.072H22.8621C29.2941 109.072 32.6541 112.336 32.6541 117.52C32.6541 122.704 29.0061 126.064 22.9581 126.064H13.5501ZM13.5501 154.96V137.008H24.4941C31.1181 137.008 34.5741 140.752 34.5741 146.128C34.5741 151.6 30.7341 154.96 24.3021 154.96H13.5501ZM68.9759 166V96.496H56.2079V166H68.9759ZM101.941 155.824C95.7014 155.824 89.9414 151.216 89.9414 142.384C89.9414 133.456 95.7014 128.944 101.941 128.944C108.181 128.944 113.941 133.456 113.941 142.384C113.941 151.312 108.181 155.824 101.941 155.824ZM101.941 117.328C87.8294 117.328 77.1734 127.792 77.1734 142.384C77.1734 156.88 87.8294 167.44 101.941 167.44C116.053 167.44 126.709 156.88 126.709 142.384C126.709 127.792 116.053 117.328 101.941 117.328ZM131.508 168.592C132.852 177.616 141.492 185.68 154.452 185.68C172.212 185.68 179.22 173.872 179.22 160.912V118.768H166.932V124.336C165.3 121.168 160.98 117.904 153.492 117.904C140.532 117.904 131.508 128.464 131.508 140.944C131.508 154.192 140.916 163.888 153.492 163.888C160.308 163.888 164.724 160.912 166.644 157.84V161.296C166.644 170.416 162.132 174.448 154.068 174.448C148.02 174.448 143.892 170.704 143.028 165.52L131.508 168.592ZM155.7 152.944C149.076 152.944 144.372 148.336 144.372 140.944C144.372 133.648 149.364 129.04 155.7 129.04C161.844 129.04 166.836 133.648 166.836 140.944C166.836 148.24 162.228 152.944 155.7 152.944ZM202.997 184.24V161.392C205.301 164.56 210.101 167.152 216.629 167.152C229.973 167.152 238.901 156.592 238.901 142.288C238.901 128.272 230.933 117.712 217.109 117.712C210.005 117.712 204.725 120.88 202.613 124.528V118.768H190.229V184.24H202.997ZM226.325 142.384C226.325 150.832 221.141 155.728 214.613 155.728C208.085 155.728 202.805 150.736 202.805 142.384C202.805 134.032 208.085 129.136 214.613 129.136C221.141 129.136 226.325 134.032 226.325 142.384ZM268.306 155.824C262.066 155.824 256.306 151.216 256.306 142.384C256.306 133.456 262.066 128.944 268.306 128.944C274.546 128.944 280.306 133.456 280.306 142.384C280.306 151.312 274.546 155.824 268.306 155.824ZM268.306 117.328C254.194 117.328 243.538 127.792 243.538 142.384C243.538 156.88 254.194 167.44 268.306 167.44C282.418 167.44 293.074 156.88 293.074 142.384C293.074 127.792 282.418 117.328 268.306 117.328ZM297.201 152.848C297.777 158.224 302.673 167.44 316.881 167.44C329.265 167.44 335.217 159.568 335.217 151.888C335.217 144.976 330.513 139.312 321.201 137.392L314.481 135.952C311.889 135.472 310.161 134.032 310.161 131.728C310.161 129.04 312.849 127.024 316.209 127.024C321.585 127.024 323.601 130.576 323.985 133.36L334.641 130.96C334.065 125.872 329.553 117.328 316.113 117.328C305.937 117.328 298.449 124.336 298.449 132.784C298.449 139.408 302.577 144.88 311.697 146.896L317.937 148.336C321.585 149.104 323.025 150.832 323.025 152.944C323.025 155.44 321.009 157.648 316.785 157.648C311.217 157.648 308.433 154.192 308.145 150.448L297.201 152.848ZM359.307 104.656H347.787V111.28C347.787 115.504 345.483 118.768 340.491 118.768H338.091V130.096H346.635V152.08C346.635 161.2 352.395 166.672 361.611 166.672C365.355 166.672 367.659 166 368.811 165.52V154.96C368.139 155.152 366.411 155.344 364.875 155.344C361.227 155.344 359.307 154 359.307 149.872V130.096H368.811V118.768H359.307V104.656ZM374.736 152.848C375.312 158.224 380.208 167.44 394.416 167.44C406.8 167.44 412.752 159.568 412.752 151.888C412.752 144.976 408.048 139.312 398.736 137.392L392.016 135.952C389.424 135.472 387.696 134.032 387.696 131.728C387.696 129.04 390.384 127.024 393.744 127.024C399.12 127.024 401.136 130.576 401.52 133.36L412.176 130.96C411.6 125.872 407.088 117.328 393.648 117.328C383.472 117.328 375.984 124.336 375.984 132.784C375.984 139.408 380.112 144.88 389.232 146.896L395.472 148.336C399.12 149.104 400.56 150.832 400.56 152.944C400.56 155.44 398.544 157.648 394.32 157.648C388.752 157.648 385.968 154.192 385.68 150.448L374.736 152.848Z" fill="black"/>
</svg>
