<svg xmlns="http://www.w3.org/2000/svg" width="40" height="40" viewBox="0 0 40 40">
  <path id="Form_2" data-name="Form 2" d="M29.824,28.66H10.388A1.388,1.388,0,0,1,9,27.271V21.718a1.388,1.388,0,0,1,1.388-1.388h4.628A1.388,1.388,0,0,1,16.4,21.718a0.463,0.463,0,0,0,.463.463h6.479a0.463,0.463,0,0,0,.463-0.463A1.388,1.388,0,0,1,25.2,20.33h4.628a1.388,1.388,0,0,1,1.388,1.388v5.553A1.388,1.388,0,0,1,29.824,28.66Zm-19.436-7.4a0.463,0.463,0,0,0-.463.463v5.553a0.463,0.463,0,0,0,.463.463H29.824a0.463,0.463,0,0,0,.463-0.463V21.718a0.463,0.463,0,0,0-.463-0.463H25.2a0.463,0.463,0,0,0-.463.463,1.388,1.388,0,0,1-1.388,1.388H16.867a1.388,1.388,0,0,1-1.388-1.388,0.463,0.463,0,0,0-.463-0.463H10.388Zm12.032,0H17.793a0.463,0.463,0,0,1,0-.925H22.42A0.463,0.463,0,0,1,22.42,21.255ZM28.9,19.4a0.463,0.463,0,0,1-.463-0.463,0.463,0.463,0,0,0-.463-0.463H12.239a0.463,0.463,0,0,0-.463.463,0.463,0.463,0,0,1-.925,0,1.388,1.388,0,0,1,1.388-1.388H27.973a1.388,1.388,0,0,1,1.388,1.388A0.463,0.463,0,0,1,28.9,19.4Zm0-2.777a0.463,0.463,0,0,1-.463-0.463,0.463,0.463,0,0,0-.463-0.463H12.239a0.463,0.463,0,0,0-.463.463,0.463,0.463,0,0,1-.925,0,1.388,1.388,0,0,1,1.388-1.388H27.973a1.388,1.388,0,0,1,1.388,1.388A0.463,0.463,0,0,1,28.9,16.628Zm0-2.777a0.463,0.463,0,0,1-.463-0.463,0.463,0.463,0,0,0-.463-0.463H12.239a0.463,0.463,0,0,0-.463.463,0.463,0.463,0,1,1-.925,0A1.388,1.388,0,0,1,12.239,12H27.973a1.388,1.388,0,0,1,1.388,1.388A0.463,0.463,0,0,1,28.9,13.851Z"/>
</svg>
