<svg xmlns="http://www.w3.org/2000/svg" xmlns:xlink="http://www.w3.org/1999/xlink" width="40" height="40" viewBox="0 0 40 40">
  <path id="Form_2" data-name="Form 2" d="M19.23,25.779H11.261A1.254,1.254,0,0,1,10,24.533V11.246A1.253,1.253,0,0,1,11.261,10H23.842A1.253,1.253,0,0,1,25.1,11.246v8.3a0.419,0.419,0,0,1-.839,0h0v-8.3a0.418,0.418,0,0,0-.419-0.414H11.261a0.418,0.418,0,0,0-.419.414V24.533a0.418,0.418,0,0,0,.419.414H19.23A0.416,0.416,0,1,1,19.23,25.779Zm0.419,4.152a0.416,0.416,0,0,1-.419-0.412,0.409,0.409,0,0,1,.016-0.118l1.007-3.488a0.408,0.408,0,0,1,.106-0.18l6.022-5.964a2.2,2.2,0,0,1,3.1-.005,2.171,2.171,0,0,1,.005,3.084l-6.022,5.964a0.422,0.422,0,0,1-.181.106l-3.523,1a0.441,0.441,0,0,1-.116.016h0Zm1.38-3.686-0.769,2.666,2.692-.762L28.9,22.263a1.339,1.339,0,0,0,0-1.9,1.356,1.356,0,0,0-.612-0.35,1.382,1.382,0,0,0-1.313.348Zm2.143,2.274h0Zm5.266-4.8a0.418,0.418,0,0,1-.3-0.122l-2.517-2.491a0.414,0.414,0,0,1,0-.588,0.42,0.42,0,0,1,.591,0l2.517,2.491a0.412,0.412,0,0,1,0,.586A0.418,0.418,0,0,1,28.439,23.72Zm-5.266,5.214a0.418,0.418,0,0,1-.3-0.122L20.36,26.321a0.414,0.414,0,0,1,0-.588,0.421,0.421,0,0,1,.592,0l2.516,2.489a0.412,0.412,0,0,1,.008.586A0.418,0.418,0,0,1,23.173,28.934ZM20.908,14.152H15.036a0.415,0.415,0,1,1,0-.83h5.872A0.415,0.415,0,1,1,20.908,14.152Zm0,2.491H13.358a0.415,0.415,0,1,1,0-.83h7.549A0.415,0.415,0,1,1,20.908,16.643Zm0,2.491H13.358a0.415,0.415,0,1,1,0-.83h7.549A0.415,0.415,0,1,1,20.908,19.135Zm-2.1,2.491H13.358a0.415,0.415,0,1,1,0-.83h5.453a0.415,0.415,0,1,1,0,.831h0Z"/>
</svg>
