<svg id="Ebene_2" data-name="Ebene 2" xmlns="http://www.w3.org/2000/svg" width="21.46" height="15.01" viewBox="0 0 21.46 15.01">
  <path class="marquee-icon-back" d="M22.71,13H20l-.25-.6h3.35l.7,1.69-.55.23Zm9.95,0H31v-.6h3.35V13H33.26V26.8h1.11v.6H31.56v-.6h1.1Z" transform="translate(-12.9 -12.39)" fill="#b3b3b3" />
  <path class="marquee-icon-middle" d="M19.36,13h-3.1v-.6h3.5l2.4,5.74-.56.23Z" transform="translate(-12.9 -12.39)" fill="#666666" />
  <path class="marquee-icon-middle" d="M31,13H29.91V26.8H31v.6H28.2v-.6h1.11V13H27.54v-.6H31Z" transform="translate(-12.9 -12.39)" fill="#666666"/>
  <path class="marquee-icon-front" d="M14,13H12.9v-.6h3.5l3.8,9.08L24,12.39h3.67V13h-1.1V26.8h1.1v.6H24.85v-.6H26V13H24.39l-3.82,9.14h-.75L16,13H14.61V26.8h1.11v.6H12.9v-.6H14Z" transform="translate(-12.9 -12.39)" fill="#000000"/>
</svg>
