<svg xmlns="http://www.w3.org/2000/svg" width="40" height="40" viewBox="0 0 40 40">
  <path id="Form_1" data-name="Form 1" d="M25.478,14.167a0.393,0.393,0,0,1-.391-0.4V12.188a0.394,0.394,0,0,0-.391-0.4H15.3a0.394,0.394,0,0,0-.391.4v1.583a0.391,0.391,0,1,1-.783,0V12.188A1.182,1.182,0,0,1,15.3,11H24.7a1.182,1.182,0,0,1,1.174,1.188v1.583A0.393,0.393,0,0,1,25.478,14.167ZM20,24.458a0.393,0.393,0,0,1-.391-0.4V11.4a0.391,0.391,0,1,1,.783,0V24.063A0.393,0.393,0,0,1,20,24.458Zm2.739,0H17.261a0.4,0.4,0,0,1,0-.792h5.478A0.4,0.4,0,0,1,22.739,24.458Zm5.87,3.167H11.391a0.4,0.4,0,0,1,0-.792H28.609A0.4,0.4,0,0,1,28.609,27.625ZM14.522,30a0.389,0.389,0,0,1-.235-0.08l-3.13-2.387a0.4,0.4,0,0,1,0-.633l3.13-2.363a0.386,0.386,0,0,1,.547.08,0.4,0.4,0,0,1-.08.554l-2.712,2.048,2.714,2.069a0.4,0.4,0,0,1,.077.554A0.389,0.389,0,0,1,14.522,30Zm10.957,0a0.389,0.389,0,0,1-.313-0.158,0.4,0.4,0,0,1,.077-0.554l2.714-2.069-2.712-2.048a0.4,0.4,0,0,1-.079-0.554,0.387,0.387,0,0,1,.547-0.08l3.13,2.363a0.4,0.4,0,0,1,0,.633l-3.13,2.387A0.389,0.389,0,0,1,25.478,30Z"/>
</svg>
