<svg xmlns="http://www.w3.org/2000/svg" xmlns:xlink="http://www.w3.org/1999/xlink" width="75" height="75" viewBox="0 0 75 75">
  <defs>
    <style>
      .gallery-video-icon-gradient {
        fill: url(#Unbenannter_Verlauf_221);
      }

      .gallery-video-icon-path {
        fill: #878889;
      }
    </style>
    <linearGradient id="Unbenannter_Verlauf_221" data-name="Unbenannter Verlauf 221" x1="37.5" y1="75" x2="37.5" gradientUnits="userSpaceOnUse">
      <stop offset="0" stop-color="#d6d6d6"/>
      <stop offset="1" stop-color="#e9e9e9"/>
    </linearGradient>
  </defs>
  <g id="Ebene_2" data-name="Ebene 2">
    <rect class="gallery-video-icon-gradient" width="75" height="75"/>
  </g>
  <g id="Ebene_1" data-name="Ebene 1">
    <path id="Form_1" data-name="Form 1" class="gallery-video-icon-path" d="M46.6,33.12H28.4a2.4,2.4,0,0,1-2.4-2.4V19.23a.48.48,0,0,1,.48-.48h22a.47.47,0,0,1,.48.48V30.72A2.39,2.39,0,0,1,46.6,33.12ZM27,19.71v11a1.43,1.43,0,0,0,1.44,1.44H46.6A1.43,1.43,0,0,0,48,30.72v-11Zm21.56-1.92h-22a.48.48,0,0,1-.48-.48V14.44A2.39,2.39,0,0,1,28.4,12H46.6a2.41,2.41,0,0,1,2.4,2.4v2.87a.49.49,0,0,1-.48.48ZM27,16.83H48v-2.4A1.43,1.43,0,0,0,46.6,13H28.4A1.43,1.43,0,0,0,27,14.44v2.39Zm7.81,13.08a1.1,1.1,0,0,1-1.1-1.1V23.06A1.11,1.11,0,0,1,34.77,22a1,1,0,0,1,.45.1h0l6.35,2.77a1.22,1.22,0,0,1,.62,1.6,1.17,1.17,0,0,1-.62.62l-6.35,2.78A1.13,1.13,0,0,1,34.77,29.91Zm0-7-.08,0a.17.17,0,0,0-.07.13v5.75a.15.15,0,0,0,.07.12.14.14,0,0,0,.14,0l6.35-2.78a.24.24,0,0,0,.13-.33.24.24,0,0,0-.13-.13l-6.35-2.78h-.06Zm-4.46-5.12a.47.47,0,0,1-.47-.48A.51.51,0,0,1,30,17l4.8-4.79a.48.48,0,0,1,.67.68l-4.79,4.79A.48.48,0,0,1,30.31,17.79Zm4.79,0a.48.48,0,0,1-.33-.82l4.79-4.79a.48.48,0,0,1,.67.68l-4.79,4.79A.48.48,0,0,1,35.1,17.79Zm4.8,0a.48.48,0,0,1-.34-.82l4.79-4.79a.5.5,0,0,1,.68,0,.49.49,0,0,1,0,.64l-4.8,4.79A.47.47,0,0,1,39.9,17.79Zm4.79,0a.48.48,0,0,1-.34-.82L48,13.31a.48.48,0,0,1,.68,0,.47.47,0,0,1,0,.67l0,.05L45,17.65A.49.49,0,0,1,44.69,17.79Zm-18.21-1a.48.48,0,0,1-.34-.82L30,12.18a.48.48,0,0,1,.68,0,.47.47,0,0,1,0,.64l-3.83,3.83a.48.48,0,0,1-.34.14Z"/>
  </g>
</svg>
