<svg id="Ebene_1" data-name="Ebene 1" xmlns="http://www.w3.org/2000/svg" viewBox="0 0 64 18"><path fill="white" d="M37.5,1A1.5,1.5,0,0,1,39,2.5v13A1.5,1.5,0,0,1,37.5,17H2.5A1.5,1.5,0,0,1,1,15.5V2.5A1.5,1.5,0,0,1,2.5,1h35m0-1H2.5A2.5,2.5,0,0,0,0,2.5v13A2.5,2.5,0,0,0,2.5,18h35A2.5,2.5,0,0,0,40,15.5V2.5A2.5,2.5,0,0,0,37.5,0Z"/><path fill="white" d="M61.5,1A1.5,1.5,0,0,1,63,2.5v13A1.5,1.5,0,0,1,61.5,17h-15A1.5,1.5,0,0,1,45,15.5V2.5A1.5,1.5,0,0,1,46.5,1h15m0-1h-15A2.5,2.5,0,0,0,44,2.5v13A2.5,2.5,0,0,0,46.5,18h15A2.5,2.5,0,0,0,64,15.5V2.5A2.5,2.5,0,0,0,61.5,0Z"/></svg>