<svg id="Ebene_1" data-name="Ebene 1" xmlns="http://www.w3.org/2000/svg" viewBox="0 0 64 18"><path fill="white" d="M61.5,1A1.5,1.5,0,0,1,63,2.5v13A1.5,1.5,0,0,1,61.5,17h-25A1.5,1.5,0,0,1,35,15.5V2.5A1.5,1.5,0,0,1,36.5,1h25m0-1h-25A2.5,2.5,0,0,0,34,2.5v13A2.5,2.5,0,0,0,36.5,18h25A2.5,2.5,0,0,0,64,15.5V2.5A2.5,2.5,0,0,0,61.5,0Z"/><path fill="white" d="M27.5,1A1.5,1.5,0,0,1,29,2.5v13A1.5,1.5,0,0,1,27.5,17H2.5A1.5,1.5,0,0,1,1,15.5V2.5A1.5,1.5,0,0,1,2.5,1h25m0-1H2.5A2.5,2.5,0,0,0,0,2.5v13A2.5,2.5,0,0,0,2.5,18h25A2.5,2.5,0,0,0,30,15.5V2.5A2.5,2.5,0,0,0,27.5,0Z"/></svg>