<svg id="Ebene_1" data-name="Ebene 1" xmlns="http://www.w3.org/2000/svg" viewBox="0 0 64 18"><path d="M61.5,1A1.5,1.5,0,0,1,63,2.5v13A1.5,1.5,0,0,1,61.5,17h-40A1.5,1.5,0,0,1,20,15.5V2.5A1.5,1.5,0,0,1,21.5,1h40m0-1h-40A2.5,2.5,0,0,0,19,2.5v13A2.5,2.5,0,0,0,21.5,18h40A2.5,2.5,0,0,0,64,15.5V2.5A2.5,2.5,0,0,0,61.5,0Z"/><path d="M12.5,1A1.5,1.5,0,0,1,14,2.5v13A1.5,1.5,0,0,1,12.5,17H2.5A1.5,1.5,0,0,1,1,15.5V2.5A1.5,1.5,0,0,1,2.5,1h10m0-1H2.5A2.5,2.5,0,0,0,0,2.5v13A2.5,2.5,0,0,0,2.5,18h10A2.5,2.5,0,0,0,15,15.5V2.5A2.5,2.5,0,0,0,12.5,0Z"/></svg>