<svg id="Ebene_1" data-name="Ebene 1" xmlns="http://www.w3.org/2000/svg" viewBox="0 0 64 18"><path d="M61.5,1A1.5,1.5,0,0,1,63,2.5v13A1.5,1.5,0,0,1,61.5,17h-35A1.5,1.5,0,0,1,25,15.5V2.5A1.5,1.5,0,0,1,26.5,1h35m0-1h-35A2.5,2.5,0,0,0,24,2.5v13A2.5,2.5,0,0,0,26.5,18h35A2.5,2.5,0,0,0,64,15.5V2.5A2.5,2.5,0,0,0,61.5,0Z"/><path d="M17.5,1A1.5,1.5,0,0,1,19,2.5v13A1.5,1.5,0,0,1,17.5,17H2.5A1.5,1.5,0,0,1,1,15.5V2.5A1.5,1.5,0,0,1,2.5,1h15m0-1H2.5A2.5,2.5,0,0,0,0,2.5v13A2.5,2.5,0,0,0,2.5,18h15A2.5,2.5,0,0,0,20,15.5V2.5A2.5,2.5,0,0,0,17.5,0Z"/></svg>