<svg version="1.1" xmlns="http://www.w3.org/2000/svg" width="48px" height="48px" viewBox="0 0 48 48">
<path class="marquee-icon-back" fill-rule="evenodd" clip-rule="evenodd" d="M21.9,8.2h-6l-0.6-1.3h7.5l1.6,3.8l-1.2,0.5L21.9,8.2z M44.2,8.2h-3.7V6.9H48v1.3h-2.5v30.9H48v1.3h-6.3v-1.3
	h2.5V8.2z" fill="#B3B3B3"/>
<path class="marquee-icon-middle" d="M14.4,8.2H7.5V6.9h7.8l5.4,12.8l-1.2,0.5L14.4,8.2z" fill="#666666"/>
<path class="marquee-icon-middle"  d="M40.5,8.2H38v30.9h2.5v1.3h-6.3v-1.3h2.5V8.2h-4V6.9h7.8V8.2z" fill="#666666"/>
<path class="marquee-icon-front" d="M2.5,8.2H0V6.9h7.8l8.5,20.3l8.5-20.3H33v1.3h-2.5v30.9H33v1.3h-6.3v-1.3h2.5V8.2h-3.5l-8.5,20.4h-1.7L6.9,8.2
	H3.8v30.9h2.5v1.3H0v-1.3h2.5V8.2z" fill="black"/>
</svg>