<svg xmlns="http://www.w3.org/2000/svg" width="48" height="48" viewBox="0 0 48 48">
  <path id="Form_2" data-name="Form 2" d="M33.85,31.2A7.85,7.85,0,1,1,41.7,23.35,7.859,7.859,0,0,1,33.85,31.2Zm0-13.7A5.85,5.85,0,1,0,39.7,23.35,5.856,5.856,0,0,0,33.85,17.5ZM43,33.508a1,1,0,0,1-.707-0.293l-4.308-4.308A1,1,0,0,1,39.4,27.493L43.707,31.8A1,1,0,0,1,43,33.508ZM45,37.5H3a3,3,0,0,1-3-3v-20a3,3,0,0,1,3-3H45a3,3,0,0,1,3,3v20A3,3,0,0,1,45,37.5ZM3,13.5a1,1,0,0,0-1,1v20a1,1,0,0,0,1,1H45a1,1,0,0,0,1-1v-20a1,1,0,0,0-1-1H3Z"/>
</svg>
