<svg xmlns="http://www.w3.org/2000/svg" width="48" height="48" viewBox="0 0 48 48">
  <path id="Form_1" data-name="Form 1" d="M22.137,38.1H3.02A3.017,3.017,0,0,1,0,35.09V3.008A3.016,3.016,0,0,1,3.02,0H33.2a3.016,3.016,0,0,1,3.018,3.008V23.059a1.006,1.006,0,0,1-2.012,0V3.008a1.006,1.006,0,0,0-1.006-1H3.02a1.006,1.006,0,0,0-1.006,1V35.09a1.006,1.006,0,0,0,1.006,1H22.137A1,1,0,1,1,22.137,38.1Zm1.006,10.026a1,1,0,0,1-.967-1.278l2.415-8.422a0.99,0.99,0,0,1,.255-0.434l14.445-14.4a5.265,5.265,0,1,1,7.459,7.433l-14.445,14.4a1.009,1.009,0,0,1-.434.255L23.42,48.085A1.041,1.041,0,0,1,23.143,48.123Zm3.311-8.9-1.845,6.438,6.459-1.84L45.329,29.61a3.248,3.248,0,0,0-1.464-5.439,3.3,3.3,0,0,0-3.15.841Zm5.141,5.491h0ZM44.228,33.127a1,1,0,0,1-.711-0.294L37.48,26.818A1,1,0,0,1,38.9,25.4l6.037,6.015A1,1,0,0,1,44.228,33.127ZM31.595,45.716a1,1,0,0,1-.711-0.294l-6.037-6.015a1,1,0,0,1,1.423-1.418L32.306,44A1,1,0,0,1,31.595,45.716ZM26.161,10.026H12.075a1,1,0,1,1,0-2.005H26.161A1,1,0,1,1,26.161,10.026Zm0,6.015H8.051a1,1,0,1,1,0-2.005h18.11A1,1,0,1,1,26.161,16.041Zm0,6.015H8.051a1,1,0,1,1,0-2.005h18.11A1,1,0,1,1,26.161,22.056Zm-5.031,6.015H8.051a1,1,0,1,1,0-2.005h13.08A1,1,0,1,1,21.131,28.072Z"/>
</svg>
