<svg xmlns="http://www.w3.org/2000/svg" width="48" height="48" viewBox="0 0 48 48">
  <path id="Form_1" data-name="Form 1" d="M38,8a1,1,0,0,1-1-1V3a1,1,0,0,0-1-1H12a1,1,0,0,0-1,1V7A1,1,0,0,1,9,7V3a3,3,0,0,1,3-3H36a3,3,0,0,1,3,3V7A1,1,0,0,1,38,8ZM24,34a1,1,0,0,1-1-1V1a1,1,0,0,1,2,0V33A1,1,0,0,1,24,34Zm7,0H17a1,1,0,0,1,0-2H31A1,1,0,0,1,31,34Zm15,8H2a1,1,0,0,1,0-2H46A1,1,0,0,1,46,42ZM10,48a1,1,0,0,1-.6-0.2l-8-6.029a1,1,0,0,1,0-1.6l8-5.971a1,1,0,0,1,1.2,1.6L3.666,40.975,10.6,46.2A1,1,0,0,1,10,48Zm28,0a1,1,0,0,1-.6-1.8l6.936-5.227L37.4,35.8a1,1,0,0,1,1.2-1.6l8,5.971a1,1,0,0,1,0,1.6l-8,6.029A1,1,0,0,1,38,48Z"/>
</svg>
