<svg xmlns="http://www.w3.org/2000/svg" width="48" height="48" viewBox="0 0 48 48">
  <path id="Form_1" data-name="Form 1" d="M45,42H3a3,3,0,0,1-3-3V27a3,3,0,0,1,3-3H13a3,3,0,0,1,3,3,1,1,0,0,0,1,1H31a1,1,0,0,0,1-1,3,3,0,0,1,3-3H45a3,3,0,0,1,3,3V39A3,3,0,0,1,45,42ZM3,26a1,1,0,0,0-1,1V39a1,1,0,0,0,1,1H45a1,1,0,0,0,1-1V27a1,1,0,0,0-1-1H35a1,1,0,0,0-1,1,3,3,0,0,1-3,3H17a3,3,0,0,1-3-3,1,1,0,0,0-1-1H3Zm26,0H19a1,1,0,0,1,0-2H29A1,1,0,0,1,29,26Zm14-4a1,1,0,0,1-1-1,1,1,0,0,0-1-1H7a1,1,0,0,0-1,1,1,1,0,0,1-2,0,3,3,0,0,1,3-3H41a3,3,0,0,1,3,3A1,1,0,0,1,43,22Zm0-6a1,1,0,0,1-1-1,1,1,0,0,0-1-1H7a1,1,0,0,0-1,1,1,1,0,0,1-2,0,3,3,0,0,1,3-3H41a3,3,0,0,1,3,3A1,1,0,0,1,43,16Zm0-6a1,1,0,0,1-1-1,1,1,0,0,0-1-1H7A1,1,0,0,0,6,9,1,1,0,0,1,4,9,3,3,0,0,1,7,6H41a3,3,0,0,1,3,3A1,1,0,0,1,43,10Z"/>
</svg>
