<svg version="1.1" id="Ebene_1" xmlns="http://www.w3.org/2000/svg" xmlns:xlink="http://www.w3.org/1999/xlink" width="60px" height="60px" viewBox="0 0 60 60">
<g id="Interface-Essential__x2F__Layouts__x2F__layout-5">
	<g id="Group_517">
		<g id="layout-5">
			<g id="Rectangle-path_150">
				<path d="M39.5,41.5h-20c-0.8,0-1.5-0.7-1.5-1.5V20c0-0.8,0.7-1.5,1.5-1.5h20c0.8,0,1.5,0.7,1.5,1.5v20
					C41,40.8,40.4,41.5,39.5,41.5z M19.5,19.5c-0.3,0-0.5,0.2-0.5,0.5v20c0,0.3,0.2,0.5,0.5,0.5h20c0.3,0,0.5-0.2,0.5-0.5V20
					c0-0.3-0.2-0.5-0.5-0.5H19.5z"/>
			</g>
			<g id="Shape_2551">
				<path d="M40.5,25.5h-22c-0.3,0-0.5-0.2-0.5-0.5s0.2-0.5,0.5-0.5h22c0.3,0,0.5,0.2,0.5,0.5S40.8,25.5,40.5,25.5z"/>
			</g>
			<g id="Shape_2552">
				<path d="M25.5,41.5c-0.3,0-0.5-0.2-0.5-0.5V25c0-0.3,0.2-0.5,0.5-0.5S26,24.7,26,25v16C26,41.2,25.8,41.5,25.5,41.5
					z"/>
			</g>
			<g id="Shape_2553">
				<path d="M40.5,33.5h-15c-0.3,0-0.5-0.2-0.5-0.5s0.2-0.5,0.5-0.5h15c0.3,0,0.5,0.2,0.5,0.5S40.8,33.5,40.5,33.5z"/>
			</g>
		</g>
	</g>
</g>
</svg>
